<svg width="152" height="72" viewBox="0 0 152 72" fill="none" xmlns="http://www.w3.org/2000/svg">
<path d="M14.9773 56.1206V71.0525H6.64204V36.1434H14.7045V49.6775H14.9943C15.5852 48.0638 16.5511 46.8025 17.892 45.8934C19.2443 44.9843 20.8977 44.5297 22.8523 44.5297C24.6932 44.5297 26.2955 44.9388 27.6591 45.757C29.0227 46.5638 30.0795 47.7059 30.8295 49.1831C31.5909 50.6604 31.9659 52.3877 31.9545 54.365V71.0525H23.6193V56.0013C23.6307 54.5468 23.267 53.4104 22.5284 52.5922C21.7898 51.7741 20.75 51.365 19.4091 51.365C18.5341 51.365 17.7614 51.5581 17.0909 51.9445C16.4318 52.3195 15.9148 52.8593 15.5398 53.5638C15.1761 54.2684 14.9886 55.1206 14.9773 56.1206Z" fill="white"/>
<path d="M44.5384 71.4956C42.8679 71.4956 41.3849 71.2172 40.0895 70.6604C38.8054 70.0922 37.7884 69.24 37.0384 68.1036C36.2997 66.9559 35.9304 65.5184 35.9304 63.7911C35.9304 62.3366 36.1861 61.1093 36.6974 60.1093C37.2088 59.1093 37.9134 58.2968 38.8111 57.6718C39.7088 57.0468 40.7429 56.5752 41.9134 56.257C43.0838 55.9275 44.3338 55.7059 45.6634 55.5922C47.152 55.4559 48.3509 55.3138 49.2599 55.1661C50.169 55.007 50.8281 54.7854 51.2372 54.5013C51.6577 54.2059 51.8679 53.7911 51.8679 53.257V53.1718C51.8679 52.2968 51.5668 51.6206 50.9645 51.1434C50.3622 50.6661 49.5497 50.4275 48.527 50.4275C47.4247 50.4275 46.5384 50.6661 45.8679 51.1434C45.1974 51.6206 44.7713 52.2797 44.5895 53.1206L36.902 52.8479C37.1293 51.257 37.7145 49.8366 38.6577 48.5866C39.6122 47.3252 40.919 46.3366 42.5781 45.6206C44.2486 44.8934 46.2543 44.5297 48.5952 44.5297C50.2656 44.5297 51.8054 44.7286 53.2145 45.1263C54.6236 45.5127 55.8509 46.0809 56.8963 46.8309C57.9418 47.5695 58.7486 48.4786 59.3168 49.5581C59.8963 50.6377 60.1861 51.8706 60.1861 53.257V71.0525H52.3452V67.4047H52.1406C51.6747 68.2911 51.0781 69.0411 50.3509 69.6547C49.6349 70.2684 48.7884 70.7286 47.8111 71.0354C46.8452 71.3422 45.7543 71.4956 44.5384 71.4956ZM47.1122 66.0411C48.0099 66.0411 48.8168 65.8593 49.5327 65.4956C50.2599 65.132 50.8395 64.632 51.2713 63.9956C51.7031 63.3479 51.919 62.5979 51.919 61.7456V59.257C51.6804 59.382 51.3906 59.4957 51.0497 59.5979C50.7202 59.7002 50.3565 59.7968 49.9588 59.8877C49.5611 59.9786 49.152 60.0581 48.7315 60.1263C48.3111 60.1945 47.9077 60.257 47.5213 60.3138C46.7372 60.4388 46.0668 60.632 45.5099 60.8934C44.9645 61.1547 44.544 61.4956 44.2486 61.9161C43.9645 62.3252 43.8224 62.8138 43.8224 63.382C43.8224 64.2456 44.1293 64.9047 44.7429 65.3593C45.3679 65.8138 46.1577 66.0411 47.1122 66.0411Z" fill="white"/>
<path d="M65.2827 71.0525V36.1434H73.6179V49.3536H73.7884C74.1293 48.5581 74.6122 47.7911 75.2372 47.0525C75.8736 46.3138 76.6804 45.7116 77.6577 45.2456C78.6463 44.7684 79.8281 44.5297 81.2031 44.5297C83.0213 44.5297 84.7202 45.007 86.2997 45.9616C87.8906 46.9161 89.1747 48.3877 90.152 50.3763C91.1293 52.365 91.6179 54.8991 91.6179 57.9786C91.6179 60.9445 91.1463 63.4275 90.2031 65.4275C89.2713 67.4275 88.0099 68.9275 86.419 69.9275C84.8395 70.9275 83.0838 71.4275 81.152 71.4275C79.8338 71.4275 78.6918 71.2116 77.7259 70.7797C76.7599 70.3479 75.9474 69.7797 75.2884 69.0752C74.6406 68.3707 74.1406 67.615 73.7884 66.8081H73.5327V71.0525H65.2827ZM73.4474 57.9616C73.4474 59.3707 73.6349 60.5979 74.0099 61.6434C74.3963 62.6888 74.9474 63.5013 75.6634 64.0809C76.3906 64.6491 77.2599 64.9331 78.2713 64.9331C79.294 64.9331 80.1634 64.6491 80.8793 64.0809C81.5952 63.5013 82.1349 62.6888 82.4986 61.6434C82.8736 60.5979 83.0611 59.3707 83.0611 57.9616C83.0611 56.5525 82.8736 55.3309 82.4986 54.2968C82.1349 53.2627 81.5952 52.4616 80.8793 51.8934C80.1747 51.3252 79.3054 51.0411 78.2713 51.0411C77.2486 51.0411 76.3793 51.3195 75.6634 51.8763C74.9474 52.4331 74.3963 53.2286 74.0099 54.2627C73.6349 55.2968 73.4474 56.5297 73.4474 57.9616Z" fill="white"/>
<path d="M95.9858 71.0525V44.8706H104.321V71.0525H95.9858ZM100.162 41.8195C98.9915 41.8195 97.9858 41.4331 97.1449 40.6604C96.304 39.8763 95.8835 38.9331 95.8835 37.8309C95.8835 36.74 96.304 35.8081 97.1449 35.0354C97.9858 34.2513 98.9915 33.8593 100.162 33.8593C101.344 33.8593 102.349 34.2513 103.179 35.0354C104.02 35.8081 104.44 36.74 104.44 37.8309C104.44 38.9331 104.02 39.8763 103.179 40.6604C102.349 41.4331 101.344 41.8195 100.162 41.8195Z" fill="white"/>
<path d="M124.405 44.8706V51.007H107.888V44.8706H124.405ZM111.348 38.5979H119.683V62.8195C119.683 63.3309 119.763 63.7456 119.922 64.0638C120.092 64.3706 120.337 64.5922 120.655 64.7286C120.973 64.8536 121.354 64.9161 121.797 64.9161C122.115 64.9161 122.45 64.8877 122.803 64.8309C123.166 64.7627 123.439 64.7059 123.621 64.6604L124.882 70.6775C124.484 70.7911 123.922 70.9331 123.195 71.1036C122.479 71.2741 121.621 71.382 120.621 71.4275C118.666 71.5184 116.99 71.2911 115.592 70.7456C114.206 70.1888 113.143 69.3252 112.405 68.1547C111.678 66.9843 111.325 65.5127 111.348 63.74V38.5979Z" fill="white"/>
<path d="M151.188 52.865L143.534 53.0695C143.455 52.5241 143.239 52.0411 142.886 51.6206C142.534 51.1888 142.074 50.8536 141.506 50.615C140.949 50.365 140.301 50.24 139.562 50.24C138.597 50.24 137.773 50.4331 137.091 50.8195C136.42 51.2059 136.091 51.7286 136.102 52.3877C136.091 52.8991 136.295 53.3422 136.716 53.7172C137.148 54.0922 137.915 54.3934 139.017 54.6206L144.062 55.5752C146.676 56.0752 148.619 56.9047 149.892 58.0638C151.176 59.2229 151.824 60.757 151.835 62.6661C151.824 64.4616 151.29 66.0241 150.233 67.3536C149.188 68.6831 147.756 69.7172 145.938 70.4559C144.119 71.1831 142.04 71.5468 139.699 71.5468C135.96 71.5468 133.011 70.7797 130.852 69.2456C128.705 67.7002 127.477 65.632 127.17 63.0411L135.403 62.8366C135.585 63.7911 136.057 64.5184 136.818 65.0184C137.58 65.5184 138.551 65.7684 139.733 65.7684C140.801 65.7684 141.67 65.5695 142.341 65.1718C143.011 64.7741 143.352 64.2457 143.364 63.5866C143.352 62.9957 143.091 62.5241 142.58 62.1718C142.068 61.8082 141.267 61.5241 140.176 61.3195L135.608 60.4502C132.983 59.9729 131.028 59.0922 129.744 57.8081C128.46 56.5127 127.824 54.865 127.835 52.865C127.824 51.115 128.29 49.6206 129.233 48.382C130.176 47.132 131.517 46.1775 133.256 45.5184C134.994 44.8593 137.045 44.5297 139.409 44.5297C142.955 44.5297 145.75 45.2741 147.795 46.7627C149.841 48.24 150.972 50.2741 151.188 52.865Z" fill="white"/>
<g filter="url(#filter0_d_6_1630)">
<rect x="4.5" y="0.552475" width="15" height="15" rx="3.5" fill="#18181B" stroke="#27272A"/>
<rect x="24.5" y="0.552475" width="15" height="15" rx="3.5" fill="#1E3A8A" stroke="#1D4ED8"/>
<rect x="44.5" y="0.552475" width="15" height="15" rx="3.5" fill="#1E40AF" stroke="#2563EB"/>
<rect x="64.5" y="0.552475" width="15" height="15" rx="3.5" fill="#1D4ED8" stroke="#3B82F6"/>
<rect x="84.5" y="0.552475" width="15" height="15" rx="3.5" fill="#2563EB" stroke="#60A5FA"/>
<rect x="104.5" y="0.552475" width="15" height="15" rx="3.5" fill="#3B82F6" stroke="#7DD3FC"/>
</g>
<defs>
<filter id="filter0_d_6_1630" x="0" y="0.052475" width="124" height="24" filterUnits="userSpaceOnUse" color-interpolation-filters="sRGB">
<feFlood flood-opacity="0" result="BackgroundImageFix"/>
<feColorMatrix in="SourceAlpha" type="matrix" values="0 0 0 0 0 0 0 0 0 0 0 0 0 0 0 0 0 0 127 0" result="hardAlpha"/>
<feOffset dy="4"/>
<feGaussianBlur stdDeviation="2"/>
<feComposite in2="hardAlpha" operator="out"/>
<feColorMatrix type="matrix" values="0 0 0 0 0 0 0 0 0 0 0 0 0 0 0 0 0 0 0.25 0"/>
<feBlend mode="normal" in2="BackgroundImageFix" result="effect1_dropShadow_6_1630"/>
<feBlend mode="normal" in="SourceGraphic" in2="effect1_dropShadow_6_1630" result="shape"/>
</filter>
</defs>
</svg>
